<?xml version="1.0" encoding="UTF-8"?>
<svg xmlns="http://www.w3.org/2000/svg" xmlns:xlink="http://www.w3.org/1999/xlink" width="200pt" height="200pt" viewBox="0 0 200 200" version="1.1">
<g id="surface1">
<path style=" stroke:none;fill-rule:nonzero;fill:rgb(0%,0%,0%);fill-opacity:1;" d="M 141.640625 38.878906 C 140.441406 39.480469 139.480469 40.359375 138.679688 41.679688 L 137.480469 43.601562 L 135.160156 43.601562 C 122.519531 43.601562 101.398438 50.800781 85.199219 60.601562 C 61.558594 74.921875 44.320312 93.398438 38.320312 110.800781 C 37.078125 114.398438 37.039062 114.921875 37 120.398438 C 37 126.121094 37.039062 126.238281 38.28125 128.878906 C 41.320312 135.28125 47.199219 139.160156 56.121094 140.601562 C 63.839844 141.839844 73.199219 141.039062 83.800781 138.160156 C 87.761719 137.078125 87.441406 137.160156 94 134.800781 C 101.199219 132.160156 115.679688 124.921875 121.398438 121.078125 C 124.480469 119 130.601562 112.878906 132.71875 109.761719 C 138.039062 101.839844 140.480469 93.921875 140.519531 84.398438 C 140.558594 71.878906 136.078125 61.160156 127.121094 52.28125 C 125.359375 50.519531 124 49.078125 124.078125 49 C 124.398438 48.640625 131.71875 47.640625 134.519531 47.519531 L 137.601562 47.398438 L 138.480469 49.160156 C 140.601562 53.480469 146.800781 54.558594 150.441406 51.199219 C 151.640625 50.039062 151.679688 50.039062 152.921875 50.679688 C 157.320312 52.921875 160.519531 56.558594 162 61.039062 C 163.28125 64.839844 163.199219 70.558594 161.800781 75.359375 C 161.238281 77.320312 160.601562 79.238281 160.359375 79.679688 C 160.121094 80.121094 160 80.558594 160.121094 80.640625 C 160.199219 80.71875 160.761719 79.679688 161.320312 78.320312 C 165.441406 68.519531 165.878906 61.398438 162.800781 54.960938 C 161.480469 52.320312 158 48.71875 155.28125 47.28125 C 153.078125 46.121094 152.878906 45.878906 152.679688 44.359375 C 152 39.359375 146.359375 36.519531 141.640625 38.878906 Z M 125.320312 52.398438 C 132.398438 59 136.761719 66.878906 138.601562 76.199219 C 139.640625 81.601562 139.28125 90.878906 137.800781 95.800781 C 136.601562 99.921875 134.238281 105.121094 132.441406 107.761719 L 131.160156 109.601562 L 123 109.601562 L 120.398438 111.878906 C 114.839844 116.71875 108.640625 119.679688 101.320312 120.960938 C 99.558594 121.238281 99.679688 120.839844 101.71875 119.398438 C 103.359375 118.28125 120.839844 105.28125 121.160156 104.960938 C 121.238281 104.878906 118.359375 104.800781 114.761719 104.800781 L 108.199219 104.800781 L 102 113 C 98.601562 117.519531 95.71875 121.199219 95.601562 121.199219 C 95.480469 121.160156 92.601562 117.480469 89.199219 113 L 83 104.800781 L 69.839844 104.800781 L 80.519531 112.679688 C 86.359375 117.039062 91.199219 120.71875 91.199219 120.839844 C 91.199219 121.238281 86.878906 120.441406 84.28125 119.519531 C 78.558594 117.558594 74.761719 115.359375 70.558594 111.558594 L 68.398438 109.601562 L 63.601562 109.601562 C 60.960938 109.601562 58.800781 109.71875 58.800781 109.878906 C 58.800781 110.480469 62.359375 114.679688 64.921875 117.039062 C 74.359375 125.761719 87.640625 130.238281 99.921875 128.878906 C 102.28125 128.601562 105.160156 128.121094 106.359375 127.800781 C 109.558594 126.960938 108.359375 127.679688 103.199219 129.71875 C 92.078125 134.121094 79.679688 136.238281 71 135.199219 C 61.078125 134.039062 54.71875 129.960938 51.558594 122.800781 C 50.679688 120.839844 50.601562 120.039062 50.601562 115.199219 C 50.601562 110.160156 50.71875 109.558594 51.878906 106.121094 C 55.238281 96.519531 60.679688 88.398438 70.199219 79 C 80.121094 69.160156 94.160156 59.71875 106.601562 54.558594 C 111.679688 52.441406 120 49.640625 121.238281 49.640625 C 122.039062 49.601562 123.121094 50.359375 125.320312 52.398438 Z M 125.320312 52.398438 "/>
<path style=" stroke:none;fill-rule:nonzero;fill:rgb(0%,0%,0%);fill-opacity:1;" d="M 83.640625 75.078125 C 82.078125 76.761719 80.601562 78.960938 79.441406 81.320312 C 77.601562 85.078125 76.441406 88.558594 76.921875 89.039062 C 77.039062 89.160156 77.921875 89.359375 78.878906 89.480469 C 80.558594 89.640625 80.640625 89.601562 82 87.519531 C 83.71875 84.960938 87.839844 80.519531 90.878906 77.960938 L 93.160156 76.078125 L 90.679688 74.761719 C 85.839844 72.121094 86.359375 72.078125 83.640625 75.078125 Z M 83.640625 75.078125 "/>
<path style=" stroke:none;fill-rule:nonzero;fill:rgb(0%,0%,0%);fill-opacity:1;" d="M 101.921875 74.039062 C 100.238281 74.878906 98.761719 75.71875 98.640625 75.921875 C 98.519531 76.121094 99.601562 77.238281 101.039062 78.398438 C 103.480469 80.398438 107.800781 85.160156 110 88.359375 C 110.839844 89.601562 111.039062 89.679688 112.679688 89.480469 C 113.640625 89.398438 114.519531 89.199219 114.640625 89.078125 C 115 88.71875 112.800781 82.679688 111.359375 80.160156 C 109.878906 77.480469 107.921875 74.960938 106.121094 73.441406 L 105 72.480469 Z M 101.921875 74.039062 "/>
<path style=" stroke:none;fill-rule:nonzero;fill:rgb(0%,0%,0%);fill-opacity:1;" d="M 93.121094 79.640625 C 89.921875 82.160156 88.121094 83.921875 85.480469 87.199219 L 83.078125 90.199219 L 85.640625 90.921875 C 88.078125 91.601562 91.960938 92.960938 94.640625 94.039062 C 95.761719 94.480469 96.199219 94.398438 98.839844 93.320312 C 100.480469 92.640625 103.121094 91.71875 104.761719 91.238281 C 106.359375 90.800781 107.800781 90.359375 107.921875 90.238281 C 108.71875 89.398438 97.320312 78 95.679688 78 C 95.441406 78 94.320312 78.761719 93.121094 79.640625 Z M 93.121094 79.640625 "/>
<path style=" stroke:none;fill-rule:nonzero;fill:rgb(0%,0%,0%);fill-opacity:1;" d="M 65.199219 93.039062 C 64.558594 94.921875 64.839844 98.238281 65.839844 100.199219 L 66.601562 101.800781 L 70.039062 101.921875 L 73.480469 102.039062 L 73.121094 99.320312 C 72.921875 97.839844 72.878906 95.480469 73 94.078125 L 73.238281 91.601562 L 65.679688 91.601562 Z M 65.199219 93.039062 "/>
<path style=" stroke:none;fill-rule:nonzero;fill:rgb(0%,0%,0%);fill-opacity:1;" d="M 118.398438 95.28125 C 118.398438 97.320312 118.28125 99.679688 118.160156 100.480469 L 117.878906 102 L 124.71875 102 L 125.558594 100.199219 C 126.160156 98.960938 126.398438 97.640625 126.398438 95.761719 C 126.398438 91.761719 126.238281 91.601562 122 91.601562 L 118.398438 91.601562 Z M 118.398438 95.28125 "/>
<path style=" stroke:none;fill-rule:nonzero;fill:rgb(0%,0%,0%);fill-opacity:1;" d="M 75.839844 93.238281 C 75.71875 93.921875 75.601562 95.441406 75.601562 96.558594 L 75.640625 98.601562 L 77.160156 95.601562 C 78.71875 92.519531 78.679688 92 76.960938 92 C 76.320312 92 76.039062 92.320312 75.839844 93.238281 Z M 75.839844 93.238281 "/>
<path style=" stroke:none;fill-rule:nonzero;fill:rgb(0%,0%,0%);fill-opacity:1;" d="M 113.519531 92.28125 C 112.601562 92.519531 112.601562 92.558594 114.199219 95.601562 L 115.601562 98.199219 L 115.480469 95.199219 C 115.398438 92.078125 115.199219 91.800781 113.519531 92.28125 Z M 113.519531 92.28125 "/>
<path style=" stroke:none;fill-rule:nonzero;fill:rgb(0%,0%,0%);fill-opacity:1;" d="M 80.960938 93.800781 C 80 95.28125 77.238281 101.761719 77.480469 102.078125 C 77.761719 102.558594 83.921875 102.441406 84.199219 102 C 84.558594 101.398438 88.238281 98.71875 90.519531 97.398438 L 92.480469 96.28125 L 90.238281 95.359375 C 88.160156 94.519531 85.238281 93.601562 82.71875 93.039062 C 81.839844 92.839844 81.480469 93 80.960938 93.800781 Z M 80.960938 93.800781 "/>
<path style=" stroke:none;fill-rule:nonzero;fill:rgb(0%,0%,0%);fill-opacity:1;" d="M 108.601562 93.078125 C 106.878906 93.441406 100.160156 95.601562 99.679688 95.960938 C 99.28125 96.199219 99.71875 96.640625 101.28125 97.601562 C 102.441406 98.320312 104.441406 99.679688 105.679688 100.640625 C 107.878906 102.359375 108 102.398438 111 102.398438 C 114 102.398438 114.039062 102.359375 113.761719 101.480469 C 112.878906 98.558594 110.078125 92.761719 109.640625 92.839844 C 109.519531 92.878906 109.039062 92.960938 108.601562 93.078125 Z M 108.601562 93.078125 "/>
<path style=" stroke:none;fill-rule:nonzero;fill:rgb(0%,0%,0%);fill-opacity:1;" d="M 87.398438 40.160156 C 75.398438 42.558594 64.679688 49.640625 58.160156 59.441406 C 56.160156 62.441406 53.199219 68.320312 53.199219 69.238281 C 53.199219 69.480469 54.878906 68.238281 56.921875 66.519531 C 68.921875 56.238281 80.761719 48.878906 99.199219 40.320312 C 100.558594 39.679688 100.480469 39.640625 95.199219 39.679688 C 92.238281 39.679688 88.71875 39.921875 87.398438 40.160156 Z M 87.398438 40.160156 "/>
<path style=" stroke:none;fill-rule:nonzero;fill:rgb(0%,0%,0%);fill-opacity:1;" d="M 99.398438 42.359375 C 84.519531 48.761719 72.121094 56.320312 60.160156 66.28125 C 54.960938 70.558594 51.761719 73.921875 51.398438 75.398438 C 51.160156 76.441406 51.558594 76.160156 54.679688 73.160156 C 67.601562 60.71875 84.519531 49.878906 101.921875 42.878906 C 105.039062 41.601562 106.601562 40.800781 106.160156 40.640625 C 104.921875 40.160156 103.761719 40.480469 99.398438 42.359375 Z M 99.398438 42.359375 "/>
<path style=" stroke:none;fill-rule:nonzero;fill:rgb(0%,0%,0%);fill-opacity:1;" d="M 107 42.960938 C 95.921875 46.601562 82.839844 53.320312 71.71875 61.039062 C 62.601562 67.398438 50.800781 78.238281 50.800781 80.28125 C 50.800781 81.199219 51.238281 80.878906 54.921875 77.320312 C 71.160156 61.679688 89.441406 50.398438 109.71875 43.558594 C 111.761719 42.878906 112.28125 42.558594 111.71875 42.359375 C 110.601562 41.878906 110 41.960938 107 42.960938 Z M 107 42.960938 "/>
<path style=" stroke:none;fill-rule:nonzero;fill:rgb(0%,0%,0%);fill-opacity:1;" d="M 128 157.199219 L 128 164.398438 L 130.800781 164.398438 L 130.800781 161.441406 C 130.800781 157.800781 131.238281 156.519531 132.601562 156.160156 C 134.398438 155.71875 134.800781 156.480469 134.800781 160.640625 L 134.800781 164.398438 L 137.601562 164.398438 L 137.601562 160.199219 C 137.601562 156.238281 137.519531 155.921875 136.601562 155 C 135.441406 153.839844 133.078125 153.640625 131.679688 154.640625 L 130.800781 155.238281 L 130.800781 150 L 128 150 Z M 128 157.199219 "/>
<path style=" stroke:none;fill-rule:nonzero;fill:rgb(0%,0%,0%);fill-opacity:1;" d="M 44.078125 156.078125 C 44.238281 161.800781 44.480469 162.601562 46.441406 163.761719 C 47.800781 164.558594 51.28125 164.601562 52.800781 163.800781 C 54.800781 162.761719 55.199219 161.441406 55.199219 155.800781 L 55.199219 150.800781 L 52.398438 150.800781 L 52.398438 155.71875 C 52.398438 161.480469 52.078125 162.160156 49.359375 161.921875 C 47.199219 161.761719 46.800781 160.800781 46.800781 155.28125 L 46.800781 150.800781 L 43.921875 150.800781 Z M 44.078125 156.078125 "/>
<path style=" stroke:none;fill-rule:nonzero;fill:rgb(0%,0%,0%);fill-opacity:1;" d="M 58 157.601562 L 58 164.398438 L 60.800781 164.398438 L 60.800781 150.800781 L 58 150.800781 Z M 58 157.601562 "/>
<path style=" stroke:none;fill-rule:nonzero;fill:rgb(0%,0%,0%);fill-opacity:1;" d="M 62 152 C 62 153.160156 62.078125 153.199219 63.800781 153.199219 L 65.601562 153.199219 L 65.601562 164.398438 L 68.800781 164.398438 L 68.800781 153.199219 L 70.601562 153.199219 C 72.320312 153.199219 72.398438 153.160156 72.398438 152 L 72.398438 150.800781 L 62 150.800781 Z M 62 152 "/>
<path style=" stroke:none;fill-rule:nonzero;fill:rgb(0%,0%,0%);fill-opacity:1;" d="M 77.601562 152 C 77.601562 153.160156 77.679688 153.199219 79.398438 153.199219 L 81.199219 153.199219 L 81.199219 164.398438 L 84.398438 164.398438 L 84.398438 153.199219 L 86.199219 153.199219 C 87.921875 153.199219 88 153.160156 88 152 L 88 150.800781 L 77.601562 150.800781 Z M 77.601562 152 "/>
<path style=" stroke:none;fill-rule:nonzero;fill:rgb(0%,0%,0%);fill-opacity:1;" d="M 121.441406 153 C 121.320312 153.519531 120.839844 154.160156 120.398438 154.398438 C 119.480469 154.921875 119.320312 156 120.199219 156 C 120.679688 156 120.800781 156.558594 120.800781 158.761719 C 120.800781 163.601562 121.558594 164.601562 125.039062 164.320312 C 126.398438 164.199219 126.601562 164.078125 126.71875 163.078125 C 126.839844 162.078125 126.761719 162 125.839844 162.238281 C 124.121094 162.640625 123.601562 161.839844 123.601562 158.761719 L 123.601562 156 L 125.199219 156 C 126.640625 156 126.800781 155.878906 126.800781 155 C 126.800781 154.078125 126.640625 154 125.199219 154 C 123.761719 154 123.601562 153.878906 123.601562 153 C 123.601562 151.558594 121.800781 151.558594 121.441406 153 Z M 121.441406 153 "/>
<path style=" stroke:none;fill-rule:nonzero;fill:rgb(0%,0%,0%);fill-opacity:1;" d="M 90.519531 154.800781 C 88.398438 156.078125 87.839844 160.160156 89.441406 162.601562 C 90.199219 163.800781 91.679688 164.398438 93.800781 164.398438 C 96.441406 164.398438 98.039062 162.878906 98.320312 160.078125 C 98.679688 156.28125 96.921875 154 93.640625 154 C 92.519531 154 91.28125 154.320312 90.519531 154.800781 Z M 94.960938 156.878906 C 95.878906 158.160156 95.800781 160.921875 94.800781 161.800781 C 93.761719 162.761719 92.078125 162.320312 91.558594 160.878906 C 90.320312 157.71875 93.199219 154.359375 94.960938 156.878906 Z M 94.960938 156.878906 "/>
<path style=" stroke:none;fill-rule:nonzero;fill:rgb(0%,0%,0%);fill-opacity:1;" d="M 100.640625 154.839844 C 99.441406 155.800781 99.199219 158.078125 100.199219 159.480469 C 100.71875 160.199219 100.71875 160.519531 100.320312 161.199219 C 99.921875 161.839844 99.921875 162.160156 100.28125 162.761719 C 100.679688 163.398438 100.601562 163.640625 99.800781 164.160156 C 98.800781 164.800781 98.480469 166.480469 99.121094 167.441406 C 100.199219 169.078125 105.078125 169.359375 107.238281 167.878906 C 108.359375 167.121094 108.640625 166.679688 108.71875 165.320312 C 108.878906 163.199219 107.878906 162.398438 104.960938 162.398438 C 103.71875 162.398438 102.71875 162.199219 102.441406 161.878906 C 101.839844 161.121094 102.28125 160.800781 104.078125 160.800781 C 105.320312 160.800781 105.921875 160.519531 106.878906 159.601562 C 107.921875 158.558594 108.039062 158.199219 107.839844 157 C 107.601562 155.761719 107.679688 155.601562 108.398438 155.601562 C 108.921875 155.601562 109.199219 155.320312 109.199219 154.800781 C 109.199219 154.039062 108.921875 154 105.441406 154 C 102.28125 154 101.558594 154.121094 100.640625 154.839844 Z M 105.121094 156.519531 C 105.398438 158.039062 104.839844 159.199219 103.800781 159.199219 C 102.480469 159.199219 101.71875 157.679688 102.398438 156.441406 C 102.960938 155.320312 104.921875 155.398438 105.121094 156.519531 Z M 105.761719 164.640625 C 106.800781 165.039062 106.519531 166.359375 105.320312 166.839844 C 102.839844 167.761719 100 166.28125 101.761719 164.960938 C 102.558594 164.398438 104.640625 164.199219 105.761719 164.640625 Z M 105.761719 164.640625 "/>
<path style=" stroke:none;fill-rule:nonzero;fill:rgb(0%,0%,0%);fill-opacity:1;" d="M 111.121094 155.160156 C 109.878906 156.28125 109.800781 156.480469 109.800781 159.199219 C 109.800781 161.921875 109.878906 162.121094 111.121094 163.238281 C 112.238281 164.238281 112.71875 164.398438 114.761719 164.398438 C 117.878906 164.398438 118.398438 164.160156 118.398438 162.761719 C 118.398438 161.71875 118.320312 161.640625 117.640625 162 C 116.359375 162.679688 113.800781 162.480469 113.078125 161.679688 C 111.800781 160.28125 112.238281 160 115.601562 160 L 118.800781 160 L 118.800781 158.160156 C 118.800781 156.679688 118.601562 156.121094 117.640625 155.160156 C 116.640625 154.199219 116.160156 154 114.441406 154 C 112.761719 154 112.199219 154.199219 111.121094 155.160156 Z M 115.921875 156.480469 C 116.960938 157.519531 116.441406 158 114.398438 158 C 112.359375 158 111.839844 157.519531 112.878906 156.480469 C 113.480469 155.878906 115.320312 155.878906 115.921875 156.480469 Z M 115.921875 156.480469 "/>
<path style=" stroke:none;fill-rule:nonzero;fill:rgb(0%,0%,0%);fill-opacity:1;" d="M 140.800781 155.121094 C 138.839844 157.121094 138.71875 160.921875 140.558594 163.039062 C 141.28125 163.921875 141.921875 164.160156 143.71875 164.320312 C 146.839844 164.558594 148 164.238281 148 163.039062 C 148 162.121094 147.921875 162.078125 145.640625 162.28125 C 143.519531 162.480469 143.238281 162.398438 142.640625 161.558594 C 142.28125 161.039062 142 160.480469 142 160.320312 C 142 160.121094 143.558594 160 145.441406 160 L 148.921875 160 L 148.640625 158.078125 C 148.28125 155.398438 146.71875 154 143.960938 154 C 142.28125 154 141.761719 154.199219 140.800781 155.121094 Z M 145.519531 156.480469 C 146.558594 157.519531 146.039062 158 144 158 C 141.839844 158 141.800781 157.960938 142.398438 156.761719 C 142.878906 155.878906 144.761719 155.71875 145.519531 156.480469 Z M 145.519531 156.480469 "/>
<path style=" stroke:none;fill-rule:nonzero;fill:rgb(0%,0%,0%);fill-opacity:1;" d="M 150.398438 159.199219 L 150.398438 164.398438 L 153.199219 164.398438 L 153.199219 161.039062 C 153.199219 158 153.28125 157.601562 154.078125 157.039062 C 154.558594 156.679688 155.398438 156.398438 155.878906 156.398438 C 156.640625 156.398438 156.800781 156.199219 156.800781 155.199219 C 156.800781 154.199219 156.640625 154 155.839844 154 C 155.320312 154 154.441406 154.359375 153.878906 154.800781 L 152.839844 155.601562 L 152.601562 154.800781 C 152.441406 154.28125 152 154 151.359375 154 L 150.398438 154 Z M 150.398438 159.199219 "/>
<path style=" stroke:none;fill-rule:nonzero;fill:rgb(0%,0%,0%);fill-opacity:1;" d="M 72.679688 158.28125 C 72.519531 158.398438 72.398438 158.960938 72.398438 159.480469 C 72.398438 160.359375 72.558594 160.398438 75 160.398438 L 77.601562 160.398438 L 77.601562 159.199219 C 77.601562 158 77.601562 158 75.28125 158 C 74 158 72.800781 158.121094 72.679688 158.28125 Z M 72.679688 158.28125 "/>
</g>
</svg>
