<?xml version="1.0" encoding="UTF-8"?>
<svg xmlns="http://www.w3.org/2000/svg" xmlns:xlink="http://www.w3.org/1999/xlink" width="100pt" height="100pt" viewBox="0 0 100 100" version="1.1">
<g id="surface1">
<path style=" stroke:none;fill-rule:nonzero;fill:rgb(0%,0%,0%);fill-opacity:1;" d="M 70.820312 19.4375 C 70.21875 19.742188 69.742188 20.179688 69.339844 20.839844 L 68.742188 21.800781 L 67.578125 21.800781 C 61.257812 21.800781 50.699219 25.398438 42.601562 30.300781 C 30.78125 37.460938 22.160156 46.699219 19.160156 55.398438 C 18.539062 57.199219 18.519531 57.460938 18.5 60.199219 C 18.5 63.0625 18.519531 63.117188 19.140625 64.4375 C 20.660156 67.640625 23.601562 69.578125 28.0625 70.300781 C 31.921875 70.921875 36.601562 70.519531 41.898438 69.078125 C 43.882812 68.539062 43.71875 68.578125 47 67.398438 C 50.601562 66.078125 57.839844 62.460938 60.699219 60.539062 C 62.242188 59.5 65.300781 56.4375 66.359375 54.882812 C 69.019531 50.921875 70.242188 46.960938 70.257812 42.199219 C 70.28125 35.9375 68.039062 30.578125 63.5625 26.140625 C 62.679688 25.257812 62 24.539062 62.039062 24.5 C 62.199219 24.320312 65.859375 23.820312 67.257812 23.757812 L 68.800781 23.699219 L 69.242188 24.578125 C 70.300781 26.742188 73.398438 27.28125 75.21875 25.601562 C 75.820312 25.019531 75.839844 25.019531 76.460938 25.339844 C 78.660156 26.460938 80.257812 28.28125 81 30.519531 C 81.640625 32.421875 81.601562 35.28125 80.898438 37.679688 C 80.617188 38.660156 80.300781 39.617188 80.179688 39.839844 C 80.0625 40.0625 80 40.28125 80.0625 40.320312 C 80.101562 40.359375 80.382812 39.839844 80.660156 39.160156 C 82.71875 34.257812 82.9375 30.699219 81.398438 27.480469 C 80.742188 26.160156 79 24.359375 77.640625 23.640625 C 76.539062 23.0625 76.4375 22.9375 76.339844 22.179688 C 76 19.679688 73.179688 18.257812 70.820312 19.4375 Z M 62.660156 26.199219 C 66.199219 29.5 68.382812 33.4375 69.300781 38.101562 C 69.820312 40.800781 69.640625 45.4375 68.898438 47.898438 C 68.300781 49.960938 67.117188 52.5625 66.21875 53.882812 L 65.578125 54.800781 L 61.5 54.800781 L 60.199219 55.9375 C 57.421875 58.359375 54.320312 59.839844 50.660156 60.480469 C 49.78125 60.617188 49.839844 60.421875 50.859375 59.699219 C 51.679688 59.140625 60.421875 52.640625 60.578125 52.480469 C 60.617188 52.4375 59.179688 52.398438 57.382812 52.398438 L 54.101562 52.398438 L 51 56.5 C 49.300781 58.757812 47.859375 60.601562 47.800781 60.601562 C 47.742188 60.578125 46.300781 58.742188 44.601562 56.5 L 41.5 52.398438 L 34.921875 52.398438 L 40.257812 56.339844 C 43.179688 58.519531 45.601562 60.359375 45.601562 60.421875 C 45.601562 60.617188 43.4375 60.21875 42.140625 59.757812 C 39.28125 58.78125 37.382812 57.679688 35.28125 55.78125 L 34.199219 54.800781 L 31.800781 54.800781 C 30.480469 54.800781 29.398438 54.859375 29.398438 54.9375 C 29.398438 55.242188 31.179688 57.339844 32.460938 58.519531 C 37.179688 62.882812 43.820312 65.117188 49.960938 64.4375 C 51.140625 64.300781 52.578125 64.0625 53.179688 63.898438 C 54.78125 63.480469 54.179688 63.839844 51.601562 64.859375 C 46.039062 67.0625 39.839844 68.117188 35.5 67.601562 C 30.539062 67.019531 27.359375 64.980469 25.78125 61.398438 C 25.339844 60.421875 25.300781 60.019531 25.300781 57.601562 C 25.300781 55.078125 25.359375 54.78125 25.9375 53.0625 C 27.617188 48.257812 30.339844 44.199219 35.101562 39.5 C 40.0625 34.578125 47.078125 29.859375 53.300781 27.28125 C 55.839844 26.21875 60 24.820312 60.617188 24.820312 C 61.019531 24.800781 61.5625 25.179688 62.660156 26.199219 Z M 62.660156 26.199219 "/>
<path style=" stroke:none;fill-rule:nonzero;fill:rgb(0%,0%,0%);fill-opacity:1;" d="M 41.820312 37.539062 C 41.039062 38.382812 40.300781 39.480469 39.71875 40.660156 C 38.800781 42.539062 38.21875 44.28125 38.460938 44.519531 C 38.519531 44.578125 38.960938 44.679688 39.4375 44.742188 C 40.28125 44.820312 40.320312 44.800781 41 43.757812 C 41.859375 42.480469 43.921875 40.257812 45.4375 38.980469 L 46.578125 38.039062 L 45.339844 37.382812 C 42.921875 36.0625 43.179688 36.039062 41.820312 37.539062 Z M 41.820312 37.539062 "/>
<path style=" stroke:none;fill-rule:nonzero;fill:rgb(0%,0%,0%);fill-opacity:1;" d="M 50.960938 37.019531 C 50.117188 37.4375 49.382812 37.859375 49.320312 37.960938 C 49.257812 38.0625 49.800781 38.617188 50.519531 39.199219 C 51.742188 40.199219 53.898438 42.578125 55 44.179688 C 55.421875 44.800781 55.519531 44.839844 56.339844 44.742188 C 56.820312 44.699219 57.257812 44.601562 57.320312 44.539062 C 57.5 44.359375 56.398438 41.339844 55.679688 40.078125 C 54.9375 38.742188 53.960938 37.480469 53.0625 36.71875 L 52.5 36.242188 Z M 50.960938 37.019531 "/>
<path style=" stroke:none;fill-rule:nonzero;fill:rgb(0%,0%,0%);fill-opacity:1;" d="M 46.5625 39.820312 C 44.960938 41.078125 44.0625 41.960938 42.742188 43.601562 L 41.539062 45.101562 L 42.820312 45.460938 C 44.039062 45.800781 45.980469 46.480469 47.320312 47.019531 C 47.882812 47.242188 48.101562 47.199219 49.421875 46.660156 C 50.242188 46.320312 51.5625 45.859375 52.382812 45.617188 C 53.179688 45.398438 53.898438 45.179688 53.960938 45.117188 C 54.359375 44.699219 48.660156 39 47.839844 39 C 47.71875 39 47.160156 39.382812 46.5625 39.820312 Z M 46.5625 39.820312 "/>
<path style=" stroke:none;fill-rule:nonzero;fill:rgb(0%,0%,0%);fill-opacity:1;" d="M 32.601562 46.519531 C 32.28125 47.460938 32.421875 49.117188 32.921875 50.101562 L 33.300781 50.898438 L 35.019531 50.960938 L 36.742188 51.019531 L 36.5625 49.660156 C 36.460938 48.921875 36.4375 47.742188 36.5 47.039062 L 36.617188 45.800781 L 32.839844 45.800781 Z M 32.601562 46.519531 "/>
<path style=" stroke:none;fill-rule:nonzero;fill:rgb(0%,0%,0%);fill-opacity:1;" d="M 59.199219 47.640625 C 59.199219 48.660156 59.140625 49.839844 59.078125 50.242188 L 58.9375 51 L 62.359375 51 L 62.78125 50.101562 C 63.078125 49.480469 63.199219 48.820312 63.199219 47.882812 C 63.199219 45.882812 63.117188 45.800781 61 45.800781 L 59.199219 45.800781 Z M 59.199219 47.640625 "/>
<path style=" stroke:none;fill-rule:nonzero;fill:rgb(0%,0%,0%);fill-opacity:1;" d="M 37.921875 46.617188 C 37.859375 46.960938 37.800781 47.71875 37.800781 48.28125 L 37.820312 49.300781 L 38.578125 47.800781 C 39.359375 46.257812 39.339844 46 38.480469 46 C 38.160156 46 38.019531 46.160156 37.921875 46.617188 Z M 37.921875 46.617188 "/>
<path style=" stroke:none;fill-rule:nonzero;fill:rgb(0%,0%,0%);fill-opacity:1;" d="M 56.757812 46.140625 C 56.300781 46.257812 56.300781 46.28125 57.101562 47.800781 L 57.800781 49.101562 L 57.742188 47.601562 C 57.699219 46.039062 57.601562 45.898438 56.757812 46.140625 Z M 56.757812 46.140625 "/>
<path style=" stroke:none;fill-rule:nonzero;fill:rgb(0%,0%,0%);fill-opacity:1;" d="M 40.480469 46.898438 C 40 47.640625 38.617188 50.882812 38.742188 51.039062 C 38.882812 51.28125 41.960938 51.21875 42.101562 51 C 42.28125 50.699219 44.117188 49.359375 45.257812 48.699219 L 46.242188 48.140625 L 45.117188 47.679688 C 44.078125 47.257812 42.617188 46.800781 41.359375 46.519531 C 40.921875 46.421875 40.742188 46.5 40.480469 46.898438 Z M 40.480469 46.898438 "/>
<path style=" stroke:none;fill-rule:nonzero;fill:rgb(0%,0%,0%);fill-opacity:1;" d="M 54.300781 46.539062 C 53.4375 46.71875 50.078125 47.800781 49.839844 47.980469 C 49.640625 48.101562 49.859375 48.320312 50.640625 48.800781 C 51.21875 49.160156 52.21875 49.839844 52.839844 50.320312 C 53.9375 51.179688 54 51.199219 55.5 51.199219 C 57 51.199219 57.019531 51.179688 56.882812 50.742188 C 56.4375 49.28125 55.039062 46.382812 54.820312 46.421875 C 54.757812 46.4375 54.519531 46.480469 54.300781 46.539062 Z M 54.300781 46.539062 "/>
<path style=" stroke:none;fill-rule:nonzero;fill:rgb(0%,0%,0%);fill-opacity:1;" d="M 43.699219 20.078125 C 37.699219 21.28125 32.339844 24.820312 29.078125 29.71875 C 28.078125 31.21875 26.601562 34.160156 26.601562 34.617188 C 26.601562 34.742188 27.4375 34.117188 28.460938 33.257812 C 34.460938 28.117188 40.382812 24.4375 49.601562 20.160156 C 50.28125 19.839844 50.242188 19.820312 47.601562 19.839844 C 46.117188 19.839844 44.359375 19.960938 43.699219 20.078125 Z M 43.699219 20.078125 "/>
<path style=" stroke:none;fill-rule:nonzero;fill:rgb(0%,0%,0%);fill-opacity:1;" d="M 49.699219 21.179688 C 42.257812 24.382812 36.0625 28.160156 30.078125 33.140625 C 27.480469 35.28125 25.882812 36.960938 25.699219 37.699219 C 25.578125 38.21875 25.78125 38.078125 27.339844 36.578125 C 33.800781 30.359375 42.257812 24.9375 50.960938 21.4375 C 52.519531 20.800781 53.300781 20.398438 53.078125 20.320312 C 52.460938 20.078125 51.882812 20.242188 49.699219 21.179688 Z M 49.699219 21.179688 "/>
<path style=" stroke:none;fill-rule:nonzero;fill:rgb(0%,0%,0%);fill-opacity:1;" d="M 53.5 21.480469 C 47.960938 23.300781 41.421875 26.660156 35.859375 30.519531 C 31.300781 33.699219 25.398438 39.117188 25.398438 40.140625 C 25.398438 40.601562 25.617188 40.4375 27.460938 38.660156 C 35.578125 30.839844 44.71875 25.199219 54.859375 21.78125 C 55.882812 21.4375 56.140625 21.28125 55.859375 21.179688 C 55.300781 20.9375 55 20.980469 53.5 21.480469 Z M 53.5 21.480469 "/>
<path style=" stroke:none;fill-rule:nonzero;fill:rgb(0%,0%,0%);fill-opacity:1;" d="M 64 78.601562 L 64 82.199219 L 65.398438 82.199219 L 65.398438 80.71875 C 65.398438 78.898438 65.617188 78.257812 66.300781 78.078125 C 67.199219 77.859375 67.398438 78.242188 67.398438 80.320312 L 67.398438 82.199219 L 68.800781 82.199219 L 68.800781 80.101562 C 68.800781 78.117188 68.757812 77.960938 68.300781 77.5 C 67.71875 76.921875 66.539062 76.820312 65.839844 77.320312 L 65.398438 77.617188 L 65.398438 75 L 64 75 Z M 64 78.601562 "/>
<path style=" stroke:none;fill-rule:nonzero;fill:rgb(0%,0%,0%);fill-opacity:1;" d="M 22.039062 78.039062 C 22.117188 80.898438 22.242188 81.300781 23.21875 81.882812 C 23.898438 82.28125 25.640625 82.300781 26.398438 81.898438 C 27.398438 81.382812 27.601562 80.71875 27.601562 77.898438 L 27.601562 75.398438 L 26.199219 75.398438 L 26.199219 77.859375 C 26.199219 80.742188 26.039062 81.078125 24.679688 80.960938 C 23.601562 80.882812 23.398438 80.398438 23.398438 77.640625 L 23.398438 75.398438 L 21.960938 75.398438 Z M 22.039062 78.039062 "/>
<path style=" stroke:none;fill-rule:nonzero;fill:rgb(0%,0%,0%);fill-opacity:1;" d="M 29 78.800781 L 29 82.199219 L 30.398438 82.199219 L 30.398438 75.398438 L 29 75.398438 Z M 29 78.800781 "/>
<path style=" stroke:none;fill-rule:nonzero;fill:rgb(0%,0%,0%);fill-opacity:1;" d="M 31 76 C 31 76.578125 31.039062 76.601562 31.898438 76.601562 L 32.800781 76.601562 L 32.800781 82.199219 L 34.398438 82.199219 L 34.398438 76.601562 L 35.300781 76.601562 C 36.160156 76.601562 36.199219 76.578125 36.199219 76 L 36.199219 75.398438 L 31 75.398438 Z M 31 76 "/>
<path style=" stroke:none;fill-rule:nonzero;fill:rgb(0%,0%,0%);fill-opacity:1;" d="M 38.800781 76 C 38.800781 76.578125 38.839844 76.601562 39.699219 76.601562 L 40.601562 76.601562 L 40.601562 82.199219 L 42.199219 82.199219 L 42.199219 76.601562 L 43.101562 76.601562 C 43.960938 76.601562 44 76.578125 44 76 L 44 75.398438 L 38.800781 75.398438 Z M 38.800781 76 "/>
<path style=" stroke:none;fill-rule:nonzero;fill:rgb(0%,0%,0%);fill-opacity:1;" d="M 60.71875 76.5 C 60.660156 76.757812 60.421875 77.078125 60.199219 77.199219 C 59.742188 77.460938 59.660156 78 60.101562 78 C 60.339844 78 60.398438 78.28125 60.398438 79.382812 C 60.398438 81.800781 60.78125 82.300781 62.519531 82.160156 C 63.199219 82.101562 63.300781 82.039062 63.359375 81.539062 C 63.421875 81.039062 63.382812 81 62.921875 81.117188 C 62.0625 81.320312 61.800781 80.921875 61.800781 79.382812 L 61.800781 78 L 62.601562 78 C 63.320312 78 63.398438 77.9375 63.398438 77.5 C 63.398438 77.039062 63.320312 77 62.601562 77 C 61.882812 77 61.800781 76.9375 61.800781 76.5 C 61.800781 75.78125 60.898438 75.78125 60.71875 76.5 Z M 60.71875 76.5 "/>
<path style=" stroke:none;fill-rule:nonzero;fill:rgb(0%,0%,0%);fill-opacity:1;" d="M 45.257812 77.398438 C 44.199219 78.039062 43.921875 80.078125 44.71875 81.300781 C 45.101562 81.898438 45.839844 82.199219 46.898438 82.199219 C 48.21875 82.199219 49.019531 81.4375 49.160156 80.039062 C 49.339844 78.140625 48.460938 77 46.820312 77 C 46.257812 77 45.640625 77.160156 45.257812 77.398438 Z M 47.480469 78.4375 C 47.9375 79.078125 47.898438 80.460938 47.398438 80.898438 C 46.882812 81.382812 46.039062 81.160156 45.78125 80.4375 C 45.160156 78.859375 46.601562 77.179688 47.480469 78.4375 Z M 47.480469 78.4375 "/>
<path style=" stroke:none;fill-rule:nonzero;fill:rgb(0%,0%,0%);fill-opacity:1;" d="M 50.320312 77.421875 C 49.71875 77.898438 49.601562 79.039062 50.101562 79.742188 C 50.359375 80.101562 50.359375 80.257812 50.160156 80.601562 C 49.960938 80.921875 49.960938 81.078125 50.140625 81.382812 C 50.339844 81.699219 50.300781 81.820312 49.898438 82.078125 C 49.398438 82.398438 49.242188 83.242188 49.5625 83.71875 C 50.101562 84.539062 52.539062 84.679688 53.617188 83.9375 C 54.179688 83.5625 54.320312 83.339844 54.359375 82.660156 C 54.4375 81.601562 53.9375 81.199219 52.480469 81.199219 C 51.859375 81.199219 51.359375 81.101562 51.21875 80.9375 C 50.921875 80.5625 51.140625 80.398438 52.039062 80.398438 C 52.660156 80.398438 52.960938 80.257812 53.4375 79.800781 C 53.960938 79.28125 54.019531 79.101562 53.921875 78.5 C 53.800781 77.882812 53.839844 77.800781 54.199219 77.800781 C 54.460938 77.800781 54.601562 77.660156 54.601562 77.398438 C 54.601562 77.019531 54.460938 77 52.71875 77 C 51.140625 77 50.78125 77.0625 50.320312 77.421875 Z M 52.5625 78.257812 C 52.699219 79.019531 52.421875 79.601562 51.898438 79.601562 C 51.242188 79.601562 50.859375 78.839844 51.199219 78.21875 C 51.480469 77.660156 52.460938 77.699219 52.5625 78.257812 Z M 52.882812 82.320312 C 53.398438 82.519531 53.257812 83.179688 52.660156 83.421875 C 51.421875 83.882812 50 83.140625 50.882812 82.480469 C 51.28125 82.199219 52.320312 82.101562 52.882812 82.320312 Z M 52.882812 82.320312 "/>
<path style=" stroke:none;fill-rule:nonzero;fill:rgb(0%,0%,0%);fill-opacity:1;" d="M 55.5625 77.578125 C 54.9375 78.140625 54.898438 78.242188 54.898438 79.601562 C 54.898438 80.960938 54.9375 81.0625 55.5625 81.617188 C 56.117188 82.117188 56.359375 82.199219 57.382812 82.199219 C 58.9375 82.199219 59.199219 82.078125 59.199219 81.382812 C 59.199219 80.859375 59.160156 80.820312 58.820312 81 C 58.179688 81.339844 56.898438 81.242188 56.539062 80.839844 C 55.898438 80.140625 56.117188 80 57.800781 80 L 59.398438 80 L 59.398438 79.078125 C 59.398438 78.339844 59.300781 78.0625 58.820312 77.578125 C 58.320312 77.101562 58.078125 77 57.21875 77 C 56.382812 77 56.101562 77.101562 55.5625 77.578125 Z M 57.960938 78.242188 C 58.480469 78.757812 58.21875 79 57.199219 79 C 56.179688 79 55.921875 78.757812 56.4375 78.242188 C 56.742188 77.9375 57.660156 77.9375 57.960938 78.242188 Z M 57.960938 78.242188 "/>
<path style=" stroke:none;fill-rule:nonzero;fill:rgb(0%,0%,0%);fill-opacity:1;" d="M 70.398438 77.5625 C 69.421875 78.5625 69.359375 80.460938 70.28125 81.519531 C 70.640625 81.960938 70.960938 82.078125 71.859375 82.160156 C 73.421875 82.28125 74 82.117188 74 81.519531 C 74 81.0625 73.960938 81.039062 72.820312 81.140625 C 71.757812 81.242188 71.617188 81.199219 71.320312 80.78125 C 71.140625 80.519531 71 80.242188 71 80.160156 C 71 80.0625 71.78125 80 72.71875 80 L 74.460938 80 L 74.320312 79.039062 C 74.140625 77.699219 73.359375 77 71.980469 77 C 71.140625 77 70.882812 77.101562 70.398438 77.5625 Z M 72.757812 78.242188 C 73.28125 78.757812 73.019531 79 72 79 C 70.921875 79 70.898438 78.980469 71.199219 78.382812 C 71.4375 77.9375 72.382812 77.859375 72.757812 78.242188 Z M 72.757812 78.242188 "/>
<path style=" stroke:none;fill-rule:nonzero;fill:rgb(0%,0%,0%);fill-opacity:1;" d="M 75.199219 79.601562 L 75.199219 82.199219 L 76.601562 82.199219 L 76.601562 80.519531 C 76.601562 79 76.640625 78.800781 77.039062 78.519531 C 77.28125 78.339844 77.699219 78.199219 77.9375 78.199219 C 78.320312 78.199219 78.398438 78.101562 78.398438 77.601562 C 78.398438 77.101562 78.320312 77 77.921875 77 C 77.660156 77 77.21875 77.179688 76.9375 77.398438 L 76.421875 77.800781 L 76.300781 77.398438 C 76.21875 77.140625 76 77 75.679688 77 L 75.199219 77 Z M 75.199219 79.601562 "/>
<path style=" stroke:none;fill-rule:nonzero;fill:rgb(0%,0%,0%);fill-opacity:1;" d="M 36.339844 79.140625 C 36.257812 79.199219 36.199219 79.480469 36.199219 79.742188 C 36.199219 80.179688 36.28125 80.199219 37.5 80.199219 L 38.800781 80.199219 L 38.800781 79.601562 C 38.800781 79 38.800781 79 37.640625 79 C 37 79 36.398438 79.0625 36.339844 79.140625 Z M 36.339844 79.140625 "/>
</g>
</svg>
