<?xml version="1.0" standalone="no"?>
<!DOCTYPE svg PUBLIC "-//W3C//DTD SVG 20010904//EN"
 "http://www.w3.org/TR/2001/REC-SVG-20010904/DTD/svg10.dtd">
<svg version="1.0" xmlns="http://www.w3.org/2000/svg"
 width="500.000000pt" height="500.000000pt" viewBox="0 0 500.000000 500.000000"
 preserveAspectRatio="xMidYMid meet">

<g transform="translate(0.000000,500.000000) scale(0.100000,-0.100000)"
fill="#000000" stroke="none">
<path d="M3541 4028 c-30 -15 -54 -37 -74 -70 l-30 -48 -58 0 c-316 0 -844
-180 -1249 -425 -591 -358 -1022 -820 -1172 -1255 -31 -90 -32 -103 -33 -240
0 -143 1 -146 32 -212 76 -160 223 -257 446 -293 193 -31 427 -11 692 61 99
27 91 25 255 84 180 66 542 247 685 343 77 52 230 205 283 283 133 198 194
396 195 634 1 313 -111 581 -335 803 -44 44 -78 80 -76 82 8 9 191 34 261 37
l77 3 22 -44 c53 -108 208 -135 299 -51 30 29 31 29 62 13 110 -56 190 -147
227 -259 32 -95 30 -238 -5 -358 -14 -49 -30 -97 -36 -108 -6 -11 -9 -22 -6
-24 2 -2 16 24 30 58 103 245 114 423 37 584 -33 66 -120 156 -188 192 -55 29
-60 35 -65 73 -17 125 -158 196 -276 137z m-408 -338 c177 -165 286 -362 332
-595 26 -135 17 -367 -20 -490 -30 -103 -89 -233 -134 -299 l-32 -46 -102 0
-102 0 -65 -57 c-139 -121 -294 -195 -477 -227 -44 -7 -41 3 10 39 41 28 478
353 486 361 2 2 -70 4 -160 4 l-164 0 -155 -205 c-85 -113 -157 -205 -160
-205 -3 1 -75 93 -160 205 l-155 205 -165 0 -164 0 267 -197 c146 -109 267
-201 267 -204 0 -10 -108 10 -173 33 -143 49 -238 104 -343 199 l-54 49 -120
0 c-66 0 -120 -3 -120 -7 0 -15 89 -120 153 -179 236 -218 568 -330 875 -296
59 7 131 19 161 27 80 21 50 3 -79 -48 -278 -110 -588 -163 -805 -137 -248 29
-407 131 -486 310 -22 49 -24 69 -24 190 0 126 3 141 32 227 84 240 220 443
458 678 248 246 599 482 910 611 127 53 335 123 366 123 20 1 47 -18 102 -69z"/>
<path d="M2091 3123 c-39 -42 -76 -97 -105 -156 -46 -94 -75 -181 -63 -193 3
-3 25 -8 49 -11 42 -4 44 -3 78 49 43 64 146 175 222 239 l57 47 -62 33 c-121
66 -108 67 -176 -8z"/>
<path d="M2548 3149 c-42 -21 -79 -42 -82 -47 -3 -5 24 -33 60 -62 61 -50 169
-169 224 -249 21 -31 26 -33 67 -28 24 2 46 7 49 10 9 9 -46 160 -82 223 -37
67 -86 130 -131 168 l-28 24 -77 -39z"/>
<path d="M2328 3009 c-80 -63 -125 -107 -191 -189 l-60 -75 64 -18 c61 -17
158 -51 225 -78 28 -11 39 -9 105 18 41 17 107 40 148 52 40 11 76 22 79 25
20 21 -265 306 -306 306 -6 0 -34 -19 -64 -41z"/>
<path d="M1630 2674 c-16 -47 -9 -130 16 -179 l19 -40 86 -3 86 -3 -9 68 c-5
37 -6 96 -3 131 l6 62 -95 0 -94 0 -12 -36z"/>
<path d="M2960 2618 c0 -51 -3 -110 -6 -130 l-7 -38 86 0 85 0 21 45 c15 31
21 64 21 111 0 100 -4 104 -110 104 l-90 0 0 -92z"/>
<path d="M1896 2669 c-3 -17 -6 -55 -6 -83 l1 -51 38 75 c39 77 38 90 -5 90
-16 0 -23 -8 -28 -31z"/>
<path d="M2838 2693 c-23 -6 -23 -7 17 -83 l35 -65 -3 75 c-2 78 -7 85 -49 73z"/>
<path d="M2024 2655 c-24 -37 -93 -199 -87 -207 7 -12 161 -9 168 2 9 15 101
82 158 115 l49 28 -56 23 c-52 21 -125 44 -188 58 -22 5 -31 1 -44 -19z"/>
<path d="M2715 2673 c-43 -9 -211 -63 -223 -72 -10 -6 1 -17 40 -41 29 -18 79
-52 110 -76 55 -43 58 -44 133 -44 75 0 76 1 69 23 -22 73 -92 218 -103 216
-3 -1 -15 -3 -26 -6z"/>
<path d="M2185 3996 c-300 -60 -568 -237 -731 -482 -50 -75 -124 -222 -124
-245 0 -6 42 25 93 68 300 257 596 441 1057 655 34 16 32 17 -100 16 -74 0
-162 -6 -195 -12z"/>
<path d="M2485 3941 c-372 -160 -682 -349 -981 -598 -130 -107 -210 -191 -219
-228 -6 -26 4 -19 82 56 323 311 746 582 1181 757 78 32 117 52 106 56 -31 12
-60 4 -169 -43z"/>
<path d="M2675 3926 c-277 -91 -604 -259 -882 -452 -228 -159 -523 -430 -523
-481 0 -23 11 -15 103 74 406 391 863 673 1370 844 51 17 64 25 50 30 -28 12
-43 10 -118 -15z"/>
<path d="M3200 1070 l0 -180 35 0 35 0 0 74 c0 91 11 123 45 132 45 11 55 -8
55 -112 l0 -94 35 0 35 0 0 105 c0 99 -2 107 -25 130 -29 29 -88 34 -123 9
l-22 -15 0 65 0 66 -35 0 -35 0 0 -180z"/>
<path d="M1102 1098 c4 -143 10 -163 59 -192 34 -20 121 -21 159 -1 50 26 60
59 60 200 l0 125 -35 0 -35 0 0 -123 c0 -144 -8 -161 -76 -155 -54 4 -64 28
-64 166 l0 112 -36 0 -36 0 4 -132z"/>
<path d="M1450 1060 l0 -170 35 0 35 0 0 170 0 170 -35 0 -35 0 0 -170z"/>
<path d="M1550 1200 c0 -29 2 -30 45 -30 l45 0 0 -140 0 -140 40 0 40 0 0 140
0 140 45 0 c43 0 45 1 45 30 l0 30 -130 0 -130 0 0 -30z"/>
<path d="M1940 1200 c0 -29 2 -30 45 -30 l45 0 0 -140 0 -140 40 0 40 0 0 140
0 140 45 0 c43 0 45 1 45 30 l0 30 -130 0 -130 0 0 -30z"/>
<path d="M3036 1175 c-3 -13 -15 -29 -26 -35 -23 -13 -27 -40 -5 -40 12 0 15
-14 15 -69 0 -121 19 -146 106 -139 34 3 39 6 42 31 3 25 1 27 -22 21 -43 -10
-56 10 -56 87 l0 69 40 0 c36 0 40 3 40 25 0 23 -4 25 -40 25 -36 0 -40 3 -40
25 0 36 -45 36 -54 0z"/>
<path d="M2263 1130 c-53 -32 -67 -134 -27 -195 19 -30 56 -45 109 -45 66 0
106 38 113 108 9 95 -35 152 -117 152 -28 0 -59 -8 -78 -20z m111 -52 c23 -32
21 -101 -4 -123 -26 -24 -68 -13 -81 23 -31 79 41 163 85 100z"/>
<path d="M2516 1129 c-30 -24 -36 -81 -11 -116 13 -18 13 -26 3 -43 -10 -16
-10 -24 -1 -39 10 -16 8 -22 -12 -35 -25 -16 -33 -58 -17 -82 27 -41 149 -48
203 -11 28 19 35 30 37 64 4 53 -21 73 -94 73 -31 0 -56 5 -63 13 -15 19 -4
27 41 27 31 0 46 7 70 30 26 26 29 35 24 65 -6 31 -4 35 14 35 13 0 20 7 20
20 0 19 -7 20 -94 20 -79 0 -97 -3 -120 -21z m112 -42 c7 -38 -7 -67 -33 -67
-33 0 -52 38 -35 69 14 28 63 26 68 -2z m16 -203 c26 -10 19 -43 -11 -55 -62
-23 -133 14 -89 47 20 14 72 19 100 8z"/>
<path d="M2778 1121 c-31 -28 -33 -33 -33 -101 0 -68 2 -73 33 -101 28 -25 40
-29 91 -29 78 0 91 6 91 41 0 26 -2 28 -19 19 -32 -17 -96 -12 -114 8 -32 35
-21 42 63 42 l80 0 0 46 c0 37 -5 51 -29 75 -25 24 -37 29 -80 29 -42 0 -56
-5 -83 -29z m120 -33 c26 -26 13 -38 -38 -38 -51 0 -64 12 -38 38 15 15 61 15
76 0z"/>
<path d="M3520 1122 c-49 -50 -52 -145 -6 -198 18 -22 34 -28 79 -32 78 -6
107 2 107 32 0 23 -2 24 -59 19 -53 -5 -60 -3 -75 18 -9 13 -16 27 -16 31 0 5
39 8 86 8 l87 0 -7 48 c-9 67 -48 102 -117 102 -42 0 -55 -5 -79 -28z m118
-34 c26 -26 13 -38 -38 -38 -54 0 -55 1 -40 31 12 22 59 26 78 7z"/>
<path d="M3760 1020 l0 -130 35 0 35 0 0 84 c0 76 2 86 22 100 12 9 33 16 45
16 19 0 23 5 23 30 0 25 -4 30 -24 30 -13 0 -35 -9 -49 -20 l-26 -20 -6 20
c-4 13 -15 20 -31 20 l-24 0 0 -130z"/>
<path d="M1817 1043 c-4 -3 -7 -17 -7 -30 0 -22 4 -23 65 -23 l65 0 0 30 c0
30 0 30 -58 30 -32 0 -62 -3 -65 -7z"/>
</g>
</svg>
